PathFileType	4	(X/Y/Z)	37_1_6_p0_0-224.trc
DataRate	CameraRate	NumFrames	NumMarkers	Units	OrigDataRate	OrigDataStartFrame	OrigNumFrames
60.0	60.0	6	27	m	60.0	28	225
Frame#	Time	RHip			RKnee			RAnkle			RBigToe			RSmallToe			RHeel			LHip			LKnee			LAnkle			LBigToe			LSmallToe			LHeel			Neck			Head			Nose			RShoulder			RElbow			RWrist			RThumb			RIndex			RPinky			LShoulder			LElbow			LWrist			LThumb			LIndex			LPinky			
		X1	Y1	Z1	X2	Y2	Z2	X3	Y3	Z3	X4	Y4	Z4	X5	Y5	Z5	X6	Y6	Z6	X7	Y7	Z7	X8	Y8	Z8	X9	Y9	Z9	X10	Y10	Z10	X11	Y11	Z11	X12	Y12	Z12	X13	Y13	Z13	X14	Y14	Z14	X15	Y15	Z15	X16	Y16	Z16	X17	Y17	Z17	X18	Y18	Z18	X19	Y19	Z19	X20	Y20	Z20	X21	Y21	Z21	X22	Y22	Z22	X23	Y23	Z23	X24	Y24	Z24	X25	Y25	Z25	X26	Y26	Z26	X27	Y27	Z27	
28	0.4666666666666667	0.3631049056027244	0.6434778357959665	0.5283844709781355	0.36148910306763965	0.8497552799521924	0.9545904155832745	0.3865813646169882	1.040868604338497	1.3719455717341953	0.32275082421298046	0.8694280970132886	1.4286217056796588	0.3864603515970962	0.8613686605162113	1.4275377033694758	0.3746569756678876	1.1634965248745979	1.4237668193085162	0.184045388681549	0.7273127275113511	0.528155538930436	0.19641183755887348	0.8877507115811643	0.9429458682407599	0.18832499942037503	1.0588356741442901	1.3621785059752394	0.16614443938070048	0.8710147593370938	1.410466977476466	0.12111472983330086	0.9533763118861305	1.4196880479190384	0.2094629403656526	1.1231758785488584	1.4232913102863431	0.28287239433881434	0.5494485438051432	-0.02765579422308936	0.2754124907192327	0.43986451653279557	-0.25037438049878313	0.2656997567601861	0.3741386372279675	-0.11210237882540415	0.42183752664067786	0.5524173456333324	0.07964937953779662	0.43804113852632065	0.5323451357580377	0.3562568439689789	0.28876979342901343	0.48822931193701025	0.5644812903311863	0.2073909474303945	0.5458252454668029	0.6485503983396157	0.21680191074824576	0.5715509152001239	0.6706928076390146	0.2411988132017126	0.5832662613529667	0.6807459183114931	0.12498575480330539	0.6295331274251265	0.041576234838043596	0.10813487767191318	0.6321880131013147	0.3111168216643205	0.1795756843774989	0.5028877436539575	0.5394096007138929	0.20255853989353487	0.5363020102774794	0.6315026814982316	0.20222661229718786	0.5174767925156728	0.6584777495849725	0.2028820265013282	0.5309158348165843	0.6466267038172209
29	0.48333333333333334	0.36318912306854934	0.6437657711698769	0.5285152480932853	0.3613518152662742	0.8496712213762236	0.9546387119286197	0.3866718251425148	1.0400779878268542	1.3759515998563194	0.32263504094013423	0.8692086581101965	1.4287296234509987	0.3863522172761405	0.8611647733198032	1.4276128460233262	0.3735310010655895	1.1641609800096016	1.4322586843953204	0.18387654816852586	0.7277598496468657	0.5247314599856736	0.19630086344813893	0.8880558619948068	0.9430056684814991	0.1883260490704143	1.0586931962460835	1.3621400704360798	0.16616342326936828	0.8710283212779047	1.4104553893629126	0.12122280627460276	0.9528066895346774	1.4194639548326593	0.20930710784295647	1.1228865608999354	1.4231897755286438	0.2824933296743297	0.5474600269022901	-0.03120606715010329	0.27543344776753065	0.439823290876852	-0.2504029562284996	0.26564040554735047	0.374057486506511	-0.11212852468908019	0.4217393529506964	0.5523028999895798	0.07962837686071945	0.4380540059297528	0.5323579837280281	0.35622720454828605	0.2888304477533085	0.48830481460609954	0.5644561330159176	0.2074063530823882	0.5459287965587166	0.6484147488843548	0.21676010319654673	0.5716236766757551	0.6705828840009123	0.23859874217138702	0.5962450563125782	0.6816640875922684	0.12498989972059402	0.6296122170578579	0.04157153203497728	0.10529948308255156	0.6453408363698233	0.3105121167493353	0.17979099850374325	0.5030690167813762	0.5392845228485443	0.2083269034376759	0.5494568167282252	0.635845043622522	0.20245876769072288	0.5177169572962946	0.658329634529466	0.20327099031703272	0.5311754761081546	0.6463745935620079
30	0.5	0.36307544715604295	0.6433413851686001	0.5283676103234145	0.36059315833434447	0.8509034557495134	0.95915093391672	0.386664364415634	1.04016541864387	1.375956340925332	0.3225942574864019	0.8694786423211501	1.4288302516032083	0.3842457170149442	0.8786293933883319	1.4329411966740049	0.3745525231263719	1.1626818669307923	1.4276306739180087	0.18389758689525695	0.7275053163321104	0.5246920826647645	0.19637658246794523	0.8875899281044434	0.9428833471470116	0.1882492553918674	1.0590823733301604	1.3623044423045698	0.1661269541963852	0.870989477897507	1.4104413568348166	0.1121538122542995	0.9371148390828568	1.414584767365896	0.20640158925044635	1.1422916715050762	1.4285156938101746	0.28251323460231864	0.5473998124756966	-0.03128208305023462	0.2754741848084455	0.4396524184499461	-0.2504300945321732	0.2655911171263481	0.37394392774521235	-0.11212824821706979	0.42171047342718715	0.5524169738547039	0.0796394263209048	0.4386149238547054	0.5343437397885838	0.3597084212838417	0.28884925374939435	0.48839873188036204	0.5644553570087233	0.20741641777993156	0.5459537116371451	0.6484440250670301	0.21681867403229418	0.5716125190876415	0.6705112650984342	0.24114743937974353	0.5832474763133589	0.6806316821626355	0.12496747449894452	0.6294443339330009	0.04157032046060241	0.10818608671912032	0.6321550798058769	0.3111023957988961	0.17991680989969677	0.5029343378510073	0.5393052731022387	0.2075505695106492	0.5471081654539784	0.6322594855289652	0.20254119105850757	0.5177832061255411	0.658328281275601	0.20331089327969218	0.5311588065144609	0.6464560099837225
31	0.5166666666666667	0.3631418467437669	0.6432111135643228	0.5283008528909511	0.36141560028112046	0.8498665075321223	0.9547139181296765	0.3866530065278265	1.040121472972599	1.3759302648457723	0.32272653768605447	0.8695030761768296	1.4286889090460242	0.3843989329338369	0.8787522751372411	1.432848282194776	0.37359738336952136	1.164381380782657	1.432393483031628	0.18700351500956022	0.71300852496973	0.5243080736639444	0.19642757563031338	0.8879049940281963	0.9429994680983872	0.18728856038549668	1.0607193823945797	1.3669822250206052	0.16613321148817023	0.8709048937120711	1.4104536669071888	0.11222705990945171	0.9366367448757769	1.4144033779632343	0.20919363231585728	1.1233401407244121	1.4236270201887353	0.28249975779525377	0.5474443693997447	-0.0312379771911955	0.27749341479546596	0.42772677652796587	-0.24752130822072985	0.26557476458164847	0.3739804089388311	-0.11216572150031295	0.4217530056996641	0.5524995497151396	0.07967235308632827	0.43858438469030947	0.534267194653994	0.3597032526199234	0.2933367894410191	0.4986563710004589	0.5649408986113165	0.20668635681367845	0.5440118875034968	0.6450337646671781	0.21679877873625	0.5716100947425187	0.6703681310511139	0.24113962411050674	0.5829488828681169	0.6805627916138354	0.12497916223364207	0.629541831918609	0.04159246363037464	0.10857655118300609	0.6313905519024808	0.308001207866164	0.17973650193108742	0.5029934546860717	0.5393013296931944	0.20259506370010025	0.5363333548257934	0.6313994455178705	0.20237047229655916	0.5178739324676822	0.6582467722359343	0.2030980231915813	0.5311915257412873	0.6464827215696476
32	0.5333333333333333	0.3629348768461482	0.6431792772876374	0.5282607864691409	0.36135813754390894	0.8498171535706257	0.9548131009401754	0.38669008827097273	1.0402597052584968	1.3759332469640029	0.3226917185975792	0.8693649031407026	1.4286675631999968	0.3843839065864854	0.8785974265875098	1.4327952335164644	0.37351040135999514	1.1653200639051873	1.42846954792827	0.18344857217996585	0.7249824718402264	0.5238439514368464	0.19637470205963048	0.8879197969256382	0.9430084378817953	0.18843383646690792	1.05890959961675	1.3622544142325128	0.16612843611543626	0.8707631085177583	1.410321897779857	0.11214210955570708	0.936496628262044	1.4142294068970036	0.2096929183325182	1.1240917271339723	1.4236960550776894	0.2824728425886931	0.5473708330179113	-0.03131994904680948	0.2755134934276364	0.43965073865941906	-0.2504416722959335	0.26548339959398837	0.37384365678570447	-0.11220401924055569	0.42175842105333944	0.5525871288641198	0.07967586921481588	0.4386963213124503	0.5343232845682717	0.3597550341078024	0.28882134684197597	0.48850302943180046	0.5644883236489175	0.20673056913548607	0.5435019368368532	0.644968606190016	0.21673668521504885	0.5712858552095602	0.6703136949205855	0.24150348673791924	0.5819090315087929	0.6772481944137032	0.12492241674724117	0.6295666761609066	0.04160985370831455	0.10772741794498493	0.6301797162357933	0.3074796304089422	0.17974525865975008	0.5029464590387968	0.5392970000886812	0.20285937105202517	0.5365941988241051	0.6313971158425933	0.20204513861670712	0.5188517998249851	0.6615785058532322	0.2033390592558926	0.5314558293545281	0.6464394536013769
33	0.55	0.36245985817750503	0.6410415114634667	0.5244411393862819	0.3608470243392436	0.8513242318766826	0.9592947650938397	0.386666485434804	1.040242824976209	1.3759750712794203	0.317191349225117	0.8554306884662412	1.4244697201662004	0.38424297186531153	0.8786906326682383	1.4329629523413048	0.37345676231695524	1.1643245517513234	1.4322733360190825	0.18343209413085143	0.7247604642727619	0.5237702817970882	0.19638261146112113	0.8878494210947133	0.9429792040689746	0.1873023000148837	1.0605677876961914	1.3668542316949348	0.16614288655827286	0.8706946770682028	1.4102938819697295	0.11532386979776979	0.9198816228892106	1.409283576548233	0.2092114348181781	1.1239206300953302	1.4239718634749692	0.2824765807995114	0.5473441472346962	-0.03133762116596061	0.27548140489917183	0.43979474940585994	-0.2503910212528463	0.2655089549220459	0.3739056182355915	-0.11217979188269078	0.42185967842554917	0.5527946300173963	0.0796715350624997	0.4388244479744721	0.5344483265166702	0.35972958657724763	0.2934300647409954	0.49880438407559385	0.5649046751228659	0.20706362888093763	0.544614550175077	0.6448053645204082	0.21697497207489752	0.5717652284859193	0.6701277929790775	0.2414635426190893	0.5818620373863933	0.6734914563390799	0.12489266514235631	0.629526604115902	0.04163760277667342	0.1081571259124652	0.6324643927872404	0.3111701603217018	0.18371850632727085	0.5039031761653399	0.5392845287573006	0.20778631749950924	0.5478329290357011	0.632344229872594	0.20744766253691274	0.5434254460862751	0.6634577260378252	0.20322322463355405	0.5313196498834827	0.6465565933862538
